<svg width="180" height="180" viewBox="0 0 180 180" xmlns="http://www.w3.org/2000/svg">
  <defs>
    <radialGradient id="glow" cx="50%" cy="45%" r="60%">
      <stop offset="0%" stop-color="#FFD87A" stop-opacity="1"/>
      <stop offset="60%" stop-color="#E8B84A" stop-opacity="0.9"/>
      <stop offset="100%" stop-color="#B78628" stop-opacity="0.8"/>
    </radialGradient>
    <linearGradient id="ring" x1="0%" y1="0%" x2="100%" y2="100%">
      <stop offset="0%" stop-color="#FFE8A3"/>
      <stop offset="50%" stop-color="#F1C453"/>
      <stop offset="100%" stop-color="#B6862A"/>
    </linearGradient>
  </defs>
  <!-- weiche goldene aura -->
  <circle cx="90" cy="90" r="70" fill="url(#glow)"/>
  <!-- feiner ring -->
  <circle cx="90" cy="90" r="70" fill="none" stroke="url(#ring)" stroke-width="6"/>
  <!-- symbol: stilisierte lotus/flamme -->
  <path d="M90 52c10 12 16 22 16 32 0 12-8 22-16 26-8-4-16-14-16-26 0-10 6-20 16-32z" fill="#FFF2CC"/>
  <path d="M90 120c18-6 32-22 34-40-6 6-14 10-22 10-4-8-8-14-12-18-4 4-8 10-12 18-8 0-16-4-22-10 2 18 16 34 34 40z" fill="#FFE08A"/>
</svg>
